{
  "accessors": [
    {
      "bufferView": 2,
      "componentType": 5126,
      "count": 390,
      "max": [
        0.04183569923043251,
        1,
        0.90216302871704102
      ],
      "min": [
        -0.039770200848579407,
        -1,
        -0.90216302871704102
      ],
      "type": "VEC3"
    },
    {
      "bufferView": 2,
      "byteOffset": 4680,
      "componentType": 5126,
      "count": 390,
      "max": [
        0.97140145301818848,
        0.92199677228927612,
        0.95988249778747559
      ],
      "min": [
        -0.96928811073303223,
        -0.94080299139022827,
        -0.94637489318847656
      ],
      "type": "VEC3"
    },
    {
      "bufferView": 3,
      "componentType": 5126,
      "count": 390,
      "max": [
        0.98108500242233276,
        0.96959000825881958,
        0.97088897228240967,
        1
      ],
      "min": [
        -0.99982297420501709,
        -0.99651497602462769,
        -0.97795999050140381,
        1
      ],
      "type": "VEC4"
    },
    {
      "bufferView": 1,
      "componentType": 5126,
      "count": 390,
      "max": [
        0.87927901744842529,
        0.98341602087020874
      ],
      "min": [
        0.021197199821472168,
        0.010121599771082401
      ],
      "type": "VEC2"
    },
    {
      "bufferView": 0,
      "componentType": 5125,
      "count": 1824,
      "max": [
        389
      ],
      "min": [
        0
      ],
      "type": "SCALAR"
    },
    {
      "bufferView": 2,
      "byteOffset": 9360,
      "componentType": 5126,
      "count": 1608,
      "max": [
        0.43539899587631226,
        0.51743298768997192,
        0.77948302030563354
      ],
      "min": [
        -0.43539899587631226,
        -0.9132390022277832,
        -0.59728097915649414
      ],
      "type": "VEC3"
    },
    {
      "bufferView": 2,
      "byteOffset": 28656,
      "componentType": 5126,
      "count": 1608,
      "max": [
        0.99903833866119385,
        0.99659013748168945,
        0.99997222423553467
      ],
      "min": [
        -0.99903833866119385,
        -0.99658048152923584,
        -0.99996834993362427
      ],
      "type": "VEC3"
    },
    {
      "bufferView": 3,
      "byteOffset": 6240,
      "componentType": 5126,
      "count": 1608,
      "max": [
        0.99999600648880005,
        0.99665099382400513,
        0.9969789981842041,
        1
      ],
      "min": [
        -0.99945098161697388,
        -0.99577498435974121,
        -0.99631297588348389,
        -1
      ],
      "type": "VEC4"
    },
    {
      "bufferView": 1,
      "byteOffset": 3120,
      "componentType": 5126,
      "count": 1608,
      "max": [
        0.98464500904083252,
        0.93900197744369507
      ],
      "min": [
        0.020474100485444069,
        0.029572099447250366
      ],
      "type": "VEC2"
    },
    {
      "bufferView": 0,
      "byteOffset": 7296,
      "componentType": 5125,
      "count": 8880,
      "max": [
        1607
      ],
      "min": [
        0
      ],
      "type": "SCALAR"
    }
  ],
  "asset": {
    "extras": {
      "author": "Anthony Schmidt (https://sketchfab.com/risto296)",
      "license": "CC-BY-NC-4.0 (http://creativecommons.org/licenses/by-nc/4.0/)",
      "source": "https://sketchfab.com/models/7db0659c137242849bb166d3a7d901bf",
      "title": "Achilles' Helmet"
    },
    "generator": "Sketchfab-3.19.3",
    "version": "2.0"
  },
  "bufferViews": [
    {
      "buffer": 0,
      "byteLength": 42816,
      "byteOffset": 0,
      "name": "floatBufferViews",
      "target": 34963
    },
    {
      "buffer": 0,
      "byteLength": 15984,
      "byteOffset": 42816,
      "byteStride": 8,
      "name": "floatBufferViews",
      "target": 34962
    },
    {
      "buffer": 0,
      "byteLength": 47952,
      "byteOffset": 58800,
      "byteStride": 12,
      "name": "floatBufferViews",
      "target": 34962
    },
    {
      "buffer": 0,
      "byteLength": 31968,
      "byteOffset": 106752,
      "byteStride": 16,
      "name": "floatBufferViews",
      "target": 34962
    }
  ],
  "buffers": [
    {
      "byteLength": 138720,
      "uri": "scene.bin"
    }
  ],
  "images": [
    {
      "uri": "textures/Hair_normal.jpeg"
    },
    {
      "uri": "textures/Hair_metallicRoughness.png"
    },
    {
      "uri": "textures/Hair_baseColor.jpeg"
    },
    {
      "uri": "textures/Helm_normal.jpeg"
    },
    {
      "uri": "textures/Helm_metallicRoughness.png"
    },
    {
      "uri": "textures/Helm_baseColor.jpeg"
    }
  ],
  "materials": [
    {
      "doubleSided": true,
      "emissiveFactor": [
        0,
        0,
        0
      ],
      "name": "Helm",
      "normalTexture": {
        "index": 3,
        "scale": 1,
        "texCoord": 0
      },
      "pbrMetallicRoughness": {
        "baseColorFactor": [
          1,
          1,
          1,
          1
        ],
        "baseColorTexture": {
          "index": 5,
          "texCoord": 0
        },
        "metallicFactor": 1,
        "metallicRoughnessTexture": {
          "index": 4,
          "texCoord": 0
        },
        "roughnessFactor": 1
      }
    },
    {
      "doubleSided": true,
      "emissiveFactor": [
        0,
        0,
        0
      ],
      "name": "Hair",
      "normalTexture": {
        "index": 0,
        "scale": 1,
        "texCoord": 0
      },
      "pbrMetallicRoughness": {
        "baseColorFactor": [
          1,
          1,
          1,
          1
        ],
        "baseColorTexture": {
          "index": 2,
          "texCoord": 0
        },
        "metallicFactor": 1,
        "metallicRoughnessTexture": {
          "index": 1,
          "texCoord": 0
        },
        "roughnessFactor": 1
      }
    }
  ],
  "meshes": [
    {
      "name": "defaultMaterial",
      "primitives": [
        {
          "attributes": {
            "NORMAL": 1,
            "POSITION": 0,
            "TANGENT": 2,
            "TEXCOORD_0": 3
          },
          "indices": 4,
          "material": 1,
          "mode": 4
        }
      ]
    },
    {
      "name": "defaultMaterial",
      "primitives": [
        {
          "attributes": {
            "NORMAL": 6,
            "POSITION": 5,
            "TANGENT": 7,
            "TEXCOORD_0": 8
          },
          "indices": 9,
          "material": 0,
          "mode": 4
        }
      ]
    }
  ],
  "nodes": [
    {
      "children": [
        1
      ],
      "name": "RootNode (gltf orientation matrix)",
      "rotation": [
        -0.70710678118654746,
        -0,
        -0,
        0.70710678118654757
      ]
    },
    {
      "children": [
        2
      ],
      "name": "RootNode (model correction matrix)"
    },
    {
      "children": [
        3,
        5
      ],
      "matrix": [
        1,
        0,
        0,
        0,
        0,
        -4.3711390063094768e-08,
        0.999999999999999,
        0,
        0,
        -0.999999999999999,
        -4.3711390063094768e-08,
        0,
        0,
        0,
        0,
        1
      ],
      "name": "Collada visual scene group"
    },
    {
      "children": [
        4
      ],
      "name": "Hair"
    },
    {
      "mesh": 0,
      "name": "defaultMaterial"
    },
    {
      "children": [
        6
      ],
      "name": "Achilles"
    },
    {
      "mesh": 1,
      "name": "defaultMaterial"
    }
  ],
  "samplers": [
    {
      "magFilter": 9729,
      "minFilter": 9987,
      "wrapS": 10497,
      "wrapT": 10497
    }
  ],
  "scene": 0,
  "scenes": [
    {
      "name": "OSG_Scene",
      "nodes": [
        0
      ]
    }
  ],
  "textures": [
    {
      "sampler": 0,
      "source": 0
    },
    {
      "sampler": 0,
      "source": 1
    },
    {
      "sampler": 0,
      "source": 2
    },
    {
      "sampler": 0,
      "source": 3
    },
    {
      "sampler": 0,
      "source": 4
    },
    {
      "sampler": 0,
      "source": 5
    }
  ]
}

